#!OML:ASF E:\basketball\basketball\Project 1\Capture day 1\Session 1\Subject.ASF
:FULLY-SPECIFIED
:DEGREES
50
root -30.7692 13.8113 -0.108199 4.3076 78.6207 -10.03
lowerback 14.8499 0.384948 6.78886
upperback 8.61512 1.89565 4.66264
thorax 0.871495 1.28595 0.820171
lowerneck -6.39912 -2.84988 -8.83456
upperneck -15.1918 -2.17087 8.9363
head -3.23659 -0.7424 4.22454
rclavicle -5.96354e-014 -5.88403e-014
rhumerus -0.86096 25.4004 -76.1916
rradius 84.9543
rwrist 29.7884
rhand -31.6224 39.5149
rfingers 7.12502
rthumb -4.8841 9.59114
lclavicle -5.96354e-014 -5.88403e-014
lhumerus -50.2152 -19.1429 100.814
lradius 54.6646
lwrist 23.1552
lhand -26.7676 34.924
lfingers 7.12502
lthumb -0.195639 64.9036
rfemur -7.69257 -5.98369 9.86668
rtibia 57.4456
rfoot -36.3323 4.12265
rtoes -37.564
lfemur -37.9696 10.5464 -14.8203
ltibia 96.5497
lfoot -17.8079 -0.618196
ltoes -2.79618
51
root -30.5975 13.7946 -0.0889919 4.38943 78.3814 -10.0072
lowerback 16.2139 0.676604 6.39965
upperback 8.60067 2.38986 4.94957
thorax 0.122284 1.50256 1.23159
lowerneck -5.08169 -2.8985 -9.35216
upperneck -16.065 -2.30257 8.93832
head -3.69376 -0.804142 4.34611
rclavicle -2.22639e-014 -1.11319e-014
rhumerus 0.821901 24.5485 -74.9519
rradius 79.4331
rwrist 30.6953
rhand -31.7663 40.8311
rfingers 7.12502
rthumb -5.02308 10.9106
lclavicle -2.22639e-014 -1.11319e-014
lhumerus -52.8446 -18.2666 101.203
lradius 54.2698
lwrist 24.4202
lhand -27.6645 35.2524
lfingers 7.12502
lthumb -1.06192 65.2296
rfemur -6.17581 -4.94812 9.94134
rtibia 55.5706
rfoot -36.0315 3.90753
rtoes -37.4866
lfemur -41.6526 11.4276 -15.8542
ltibia 98.3242
lfoot -18.276 0.147848
ltoes -0.904772
52
root -30.4259 13.7776 -0.0663081 4.88375 78.1065 -9.67655
lowerback 16.6208 0.734006 5.91121
upperback 9.11287 2.44468 5.15277
thorax 0.426816 1.53654 1.71473
lowerneck -3.4611 -2.76558 -10.6165
upperneck -17.6163 -2.11706 9.48656
head -4.41885 -0.675389 4.78925
rclavicle 4.77083e-014 6.20208e-014
rhumerus 3.73293 24.0922 -73.6564
rradius 73.2803
rwrist 30.9457
rhand -31.7726 41.9104
rfingers 7.12502
rthumb -5.02913 11.9901
lclavicle 4.77083e-014 6.20208e-014
lhumerus -54.4708 -16.8177 101.177
lradius 53.8445
lwrist 25.2747
lhand -28.4477 36.2989
lfingers 7.12502
lthumb -1.81831 66.2709
rfemur -4.74846 -4.08402 10.0102
rtibia 53.582
rfoot -35.7219 3.62667
rtoes -36.9244
lfemur -45.5595 12.3755 -17.3561
ltibia 99.6057
lfoot -18.6107 2.23436
ltoes -4.73825
53
root -30.2363 13.7758 -0.0454005 5.74946 77.979 -9.06286
lowerback 18.1915 1.28416 4.82585
upperback 9.05548 3.1853 5.74335
thorax -0.539191 1.84927 2.77154
lowerneck -3.60626 -3.14817 -11.3497
upperneck -17.7966 -2.62023 9.50412
head -4.3894 -0.86992 4.92807
rclavicle -3.97569e-014 -3.97569e-014
rhumerus 5.73955 22.3977 -72.1357
rradius 66.6201
rwrist 31.7575
rhand -31.8783 43.8223
rfingers 7.12502
rthumb -5.13121 13.9044
lclavicle -3.97569e-014 -3.97569e-014
lhumerus -56.469 -16.2343 102.303
lradius 53.0241
lwrist 25.9031
lhand -28.97 37.5177
lfingers 7.12502
lthumb -2.32271 67.4848
rfemur -3.17271 -3.42951 10.018
rtibia 51.2793
rfoot -35.4724 3.22656
rtoes -36.8451
lfemur -49.5017 12.987 -19.1369
ltibia 100.181
lfoot -18.7942 4.27902
ltoes -8.36928
54
root -30.0264 13.7888 -0.026412 6.07407 77.8593 -9.04264
lowerback 18.44 1.66165 5.58247
upperback 9.84157 3.77626 5.05698
thorax 0.270166 2.21624 1.53859
lowerneck -3.39258 -3.82907 -11.054
upperneck -19.3789 -3.30578 10.4824
head -4.80206 -1.23863 5.24857
rclavicle -4.29375e-014 -6.52014e-014
rhumerus 9.16491 18.4011 -72.3793
rradius 58.9244
rwrist 33.413
rhand -31.6136 44.7349
rfingers 7.12502
rthumb -4.87559 14.811
lclavicle -4.29375e-014 -6.52014e-014
lhumerus -57.2358 -17.9203 101.812
lradius 52.4446
lwrist 27.214
lhand -29.443 38.2214
lfingers 7.12502
lthumb -2.77952 68.183
rfemur -1.41105 -2.79172 10.1714
rtibia 48.6454
rfoot -34.9381 2.62306
rtoes -37.0207
lfemur -53.2063 13.0923 -20.5628
ltibia 99.9115
lfoot -18.4566 4.26833
ltoes -5.22083
55
root -29.8116 13.8027 -0.00798051 5.38214 77.7947 -10.1102
lowerback 19.0247 2.04928 6.15692
upperback 10.3293 4.41245 4.72863
thorax 0.58239 2.58701 0.759172
lowerneck -3.11066 -4.395 -11.1483
upperneck -20.6235 -3.87893 11.3475
head -5.1301 -1.53736 5.59888
rclavicle -3.02153e-014 -3.33958e-014
rhumerus 12.7098 14.0339 -72.7952
rradius 50.2737
rwrist 35.8015
rhand -31.2625 45.3949
rfingers 7.12502
rthumb -4.53662 15.4635
lclavicle -3.02153e-014 -3.33958e-014
lhumerus -58.316 -19.0836 101.838
lradius 52.2392
lwrist 28.0543
lhand -29.4401 38.8905
lfingers 7.12502
lthumb -2.77672 68.8522
rfemur 0.339594 -2.16404 10.6529
rtibia 45.8527
rfoot -34.0773 1.73195
rtoes -37.4304
lfemur -56.8254 12.9542 -21.7539
ltibia 99.1061
lfoot -17.3248 4.09022
ltoes -3.08583
56
root -29.597 13.8045 0.0102987 4.73164 77.7556 -11.2378
lowerback 20.1745 2.57139 6.143
upperback 10.3217 5.20253 4.80761
thorax 0.00582638 2.96539 0.638418
lowerneck -3.18606 -4.93804 -11.2493
upperneck -20.8678 -4.57042 11.5947
head -5.09877 -1.8772 5.70923
rclavicle 3.97569e-014 2.54444e-014
rhumerus 15.5462 8.83419 -73.6117
rradius 41.5847
rwrist 38.8504
rhand -30.6114 46.3893
rfingers 7.12502
rthumb -3.9079 16.4454
lclavicle 3.97569e-014 2.54444e-014
lhumerus -59.799 -19.5878 102.552
lradius 51.9069
lwrist 28.7067
lhand -29.0344 39.3493
lfingers 7.12502
lthumb -2.38493 69.3157
rfemur 1.94679 -1.60623 11.168
rtibia 43.1021
rfoot -33.2603 1.06477
rtoes -37.4778
lfemur -60.2737 12.7446 -23.1125
ltibia 97.8759
lfoot -16.9301 4.4976
ltoes -7.17387
57
root -29.3795 13.7904 0.0309156 3.66496 77.6081 -12.8888
lowerback 20.6916 3.00369 6.73654
upperback 10.6809 5.89494 4.44779
thorax 0.265566 3.35975 -0.20727
lowerneck -3.41767 -5.52596 -10.8954
upperneck -21.4017 -5.23514 11.9989
head -5.13598 -2.23157 5.79692
rclavicle -2.38542e-014 4.13472e-014
rhumerus 18.8541 1.41174 -76.1239
rradius 33.361
rwrist 42.698
rhand -30.1476 47.0057
rfingers 7.12502
rthumb -3.46003 17.054
lclavicle -2.38542e-014 4.13472e-014
lhumerus -60.4069 -20.6957 102.654
lradius 51.541
lwrist 30.2334
lhand -28.9282 39.3768
lfingers 7.12502
lthumb -2.28234 69.3443
rfemur 3.34407 -0.915257 11.7614
rtibia 40.5343
rfoot -32.3321 1.38056
rtoes -35.8362
lfemur -63.3762 12.7146 -24.3359
ltibia 96.2394
lfoot -17.7547 4.10928
ltoes -9.12831
58
root -29.1579 13.7736 0.0568066 2.69827 77.3281 -14.3634
lowerback 21.3225 3.53702 6.65203
upperback 10.9553 6.62735 4.46282
thorax 0.275786 3.73024 -0.313084
lowerneck -3.08724 -5.83998 -10.877
upperneck -22.0207 -5.63314 12.1681
head -5.32829 -2.43439 5.88661
rclavicle 1.35174e-013 4.13472e-014
rhumerus 22.3339 -7.84673 -79.8008
rradius 25.9836
rwrist 46.1736
rhand -26.9898 45.2865
rfingers 7.12502
rthumb -0.410246 15.3072
lclavicle 1.35174e-013 4.13472e-014
lhumerus -60.8493 -20.881 103.117
lradius 51.0939
lwrist 31.4579
lhand -28.527 39.7007
lfingers 7.12502
lthumb -1.89485 69.672
rfemur 4.74395 -0.00356148 12.3232
rtibia 38.0967
rfoot -30.8447 0.933092
rtoes -36.224
lfemur -66.0177 12.9488 -25.582
ltibia 94.2634
lfoot -18.6514 3.05837
ltoes -7.0702
